<svg xmlns="http://www.w3.org/2000/svg" viewBox="0 0 1440 320"><path fill="#709cc0" fill-opacity="1" d="M0,256L6.2,234.7C12.3,213,25,171,37,170.7C49.2,171,62,213,74,213.3C86.2,213,98,171,111,144C123.1,117,135,107,148,128C160,149,172,203,185,208C196.9,213,209,171,222,149.3C233.8,128,246,128,258,122.7C270.8,117,283,107,295,90.7C307.7,75,320,53,332,48C344.6,43,357,53,369,90.7C381.5,128,394,192,406,213.3C418.5,235,431,213,443,170.7C455.4,128,468,64,480,58.7C492.3,53,505,107,517,122.7C529.2,139,542,117,554,138.7C566.2,160,578,224,591,218.7C603.1,213,615,139,628,106.7C640,75,652,85,665,96C676.9,107,689,117,702,112C713.8,107,726,85,738,64C750.8,43,763,21,775,48C787.7,75,800,149,812,186.7C824.6,224,837,224,849,213.3C861.5,203,874,181,886,192C898.5,203,911,245,923,234.7C935.4,224,948,160,960,128C972.3,96,985,96,997,117.3C1009.2,139,1022,181,1034,192C1046.2,203,1058,181,1071,154.7C1083.1,128,1095,96,1108,96C1120,96,1132,128,1145,154.7C1156.9,181,1169,203,1182,192C1193.8,181,1206,139,1218,122.7C1230.8,107,1243,117,1255,128C1267.7,139,1280,149,1292,170.7C1304.6,192,1317,224,1329,240C1341.5,256,1354,256,1366,229.3C1378.5,203,1391,149,1403,128C1415.4,107,1428,117,1434,122.7L1440,128L1440,320L1433.8,320C1427.7,320,1415,320,1403,320C1390.8,320,1378,320,1366,320C1353.8,320,1342,320,1329,320C1316.9,320,1305,320,1292,320C1280,320,1268,320,1255,320C1243.1,320,1231,320,1218,320C1206.2,320,1194,320,1182,320C1169.2,320,1157,320,1145,320C1132.3,320,1120,320,1108,320C1095.4,320,1083,320,1071,320C1058.5,320,1046,320,1034,320C1021.5,320,1009,320,997,320C984.6,320,972,320,960,320C947.7,320,935,320,923,320C910.8,320,898,320,886,320C873.8,320,862,320,849,320C836.9,320,825,320,812,320C800,320,788,320,775,320C763.1,320,751,320,738,320C726.2,320,714,320,702,320C689.2,320,677,320,665,320C652.3,320,640,320,628,320C615.4,320,603,320,591,320C578.5,320,566,320,554,320C541.5,320,529,320,517,320C504.6,320,492,320,480,320C467.7,320,455,320,443,320C430.8,320,418,320,406,320C393.8,320,382,320,369,320C356.9,320,345,320,332,320C320,320,308,320,295,320C283.1,320,271,320,258,320C246.2,320,234,320,222,320C209.2,320,197,320,185,320C172.3,320,160,320,148,320C135.4,320,123,320,111,320C98.5,320,86,320,74,320C61.5,320,49,320,37,320C24.6,320,12,320,6,320L0,320Z"></path></svg>